<?xml version="1.0" encoding="UTF-8" standalone="no"?><!DOCTYPE svg PUBLIC "-//W3C//DTD SVG 1.1//EN" "http://www.w3.org/Graphics/SVG/1.1/DTD/svg11.dtd"><svg width="100%" height="100%" viewBox="0 0 8292 4375" version="1.1" xmlns="http://www.w3.org/2000/svg" xmlns:xlink="http://www.w3.org/1999/xlink" xml:space="preserve" xmlns:serif="http://www.serif.com/" style="fill-rule:evenodd;clip-rule:evenodd;stroke-linejoin:round;stroke-miterlimit:2;"><g><rect x="0" y="0" width="8291.667" height="4375" style="fill:#de2910;fill-rule:nonzero;"/><path d="M1095.958,412.371l151.692,466.992l490.879,0l-397.133,288.617l151.683,466.992l-397.121,-288.617l-397.129,288.617l151.692,-466.992l-397.129,-288.617l490.875,0l151.692,-466.992Z" style="fill:#ffde00;fill-rule:nonzero;"/><path d="M2277.613,234.754l-15.429,155.921l143.483,62.866l-153.017,33.509l-15.429,155.925l-79.141,-135.217l-153.021,33.5l104.1,-117.075l-79.142,-135.212l143.492,62.858l104.104,-117.075Z" style="fill:#ffde00;fill-rule:nonzero;"/><path d="M2786.488,723.358l-72.867,138.704l109.35,112.179l-154.387,-26.458l-72.875,138.696l-22.542,-155.054l-154.392,-26.467l140.45,-69.367l-22.546,-155.05l109.35,112.179l140.458,-69.362Z" style="fill:#ffde00;fill-rule:nonzero;"/><path d="M2626.604,1316.104l53.45,147.813l157.05,-5.183l-124.017,96.525l53.454,147.812l-130.092,-88.154l-124.017,96.521l43.608,-151.004l-130.092,-88.15l157.042,-5.175l43.612,-151.004Z" style="fill:#ffde00;fill-rule:nonzero;"/><path d="M2269.058,1765.546l-8.521,156.954l146.592,56.604l-151.858,40.4l-8.517,156.941l-85.333,-131.983l-151.85,40.396l99.108,-121.963l-85.325,-131.983l146.587,56.604l99.117,-121.971Z" style="fill:#ffde00;fill-rule:nonzero;"/></g></svg>